<?xml version="1.0" encoding="utf-8"?>
<!-- Generator: Adobe Illustrator 15.0.0, SVG Export Plug-In . SVG Version: 6.00 Build 0)  -->
<!DOCTYPE svg PUBLIC "-//W3C//DTD SVG 1.1//EN" "http://www.w3.org/Graphics/SVG/1.1/DTD/svg11.dtd">
<svg version="1.1" id="Capa_1" xmlns="http://www.w3.org/2000/svg" xmlns:xlink="http://www.w3.org/1999/xlink" x="0px" y="0px"
	 width="112.926px" height="96.975px" viewBox="0 0 112.926 96.975" enable-background="new 0 0 112.926 96.975"
	 xml:space="preserve">
<g>
	<g>
		<defs>
			<rect id="SVGID_1_" y="0" width="112.926" height="96.975"/>
		</defs>
		<clipPath id="SVGID_2_">
			<use xlink:href="#SVGID_1_"  overflow="visible"/>
		</clipPath>
		<path clip-path="url(#SVGID_2_)" fill="#18292E" d="M54.656,54.417c-0.288,0-0.575-0.074-0.833-0.223L35.904,43.909
			c-0.52-0.3-0.84-0.852-0.84-1.451v-20.81c0-0.598,0.32-1.151,0.84-1.449l17.922-10.29c0.516-0.297,1.15-0.297,1.665,0
			l17.919,10.285c0.521,0.3,0.84,0.853,0.84,1.45v20.81c0,0.599-0.319,1.15-0.84,1.449L55.488,54.195
			C55.231,54.342,54.943,54.417,54.656,54.417 M70.902,24.621l-4.042,2.425c-0.271,0.162-0.566,0.239-0.859,0.239
			c-0.566,0-1.121-0.29-1.435-0.813c-0.478-0.792-0.219-1.819,0.573-2.294l4.162-2.497l-12.917-7.385l-0.029,11.531
			c0,0.924-0.749,1.672-1.672,1.672c-0.924,0-1.672-0.748-1.672-1.672V14.238h-0.009l-12.882,7.397l10.253,5.778
			c0.807,0.448,1.096,1.467,0.647,2.273c-0.306,0.549-0.875,0.859-1.462,0.859c-0.276,0-0.555-0.069-0.813-0.212l-10.338-5.767
			V39.54l10.511-6.225c0.795-0.47,1.82-0.206,2.29,0.589c0.469,0.796,0.206,1.82-0.589,2.29l-10.525,6.264l12.889,7.398h0.008
			V37.524c0-0.923,0.748-1.672,1.672-1.672s1.672,0.749,1.672,1.672v12.327h0.002l12.893-7.402l0.006-0.013l-10.303-5.74
			c-0.807-0.449-1.098-1.468-0.646-2.274c0.448-0.806,1.467-1.096,2.274-0.647l10.347,5.766l-0.002-14.918H70.902z"/>
	</g>
	<g>
		<defs>
			<rect id="SVGID_3_" y="0" width="112.926" height="96.975"/>
		</defs>
		<clipPath id="SVGID_4_">
			<use xlink:href="#SVGID_3_"  overflow="visible"/>
		</clipPath>
		<path clip-path="url(#SVGID_4_)" fill="#62848C" d="M59.538,31.046c-0.572,0-1.129-0.293-1.44-0.821
			c-0.47-0.796-0.206-1.821,0.588-2.291l2.569-1.519c0.795-0.471,1.82-0.206,2.291,0.589c0.471,0.794,0.207,1.82-0.59,2.29
			l-2.568,1.519C60.12,30.971,59.827,31.046,59.538,31.046"/>
	</g>
	<g>
		<defs>
			<rect id="SVGID_5_" y="0" width="112.926" height="96.975"/>
		</defs>
		<clipPath id="SVGID_6_">
			<use xlink:href="#SVGID_5_"  overflow="visible"/>
		</clipPath>
		<path clip-path="url(#SVGID_6_)" fill="#757578" d="M16.28,70.01c-0.06-2.65-0.774-3.872-4.587-3.872
			c-3.812,0-4.587,1.43-4.587,5.153v8.041c0,3.635,0.298,5.063,4.587,5.063s4.587-0.863,4.587-4.498v-3.127h-4.468v-2.563h7.327
			v5.688c0,4.438-0.536,7.148-7.446,7.148c-6.314,0-7.446-2.711-7.446-7.744V71.32c0-5.033,1.132-7.744,7.446-7.744
			c6.017,0,7.238,1.905,7.357,6.434L16.28,70.01L16.28,70.01z"/>
	</g>
	<g>
		<defs>
			<rect id="SVGID_7_" y="0" width="112.926" height="96.975"/>
		</defs>
		<clipPath id="SVGID_8_">
			<use xlink:href="#SVGID_7_"  overflow="visible"/>
		</clipPath>
		<polygon clip-path="url(#SVGID_8_)" fill="#757578" points="34.415,63.815 34.415,66.317 25.658,66.317 25.658,73.227 
			33.581,73.227 33.581,75.877 25.658,75.877 25.658,84.159 35.16,84.159 35.16,86.809 22.829,86.809 22.829,63.815 		"/>
	</g>
	<g>
		<defs>
			<rect id="SVGID_9_" y="0" width="112.926" height="96.975"/>
		</defs>
		<clipPath id="SVGID_10_">
			<use xlink:href="#SVGID_9_"  overflow="visible"/>
		</clipPath>
		<path clip-path="url(#SVGID_10_)" fill="#757578" d="M48.023,69.504c-0.149-1.877-0.804-3.217-3.664-3.217
			c-3.187,0-3.812,1.459-3.812,3.752c0,3.188,2.77,3.157,5.659,3.455c2.651,0.269,5.391,1.579,5.391,6.375
			c0,4.942-1.876,7.059-6.612,7.059h-0.566c-4.706,0-6.851-2.293-7.059-6.195h3.068c0.149,1.937,1.012,3.427,3.961,3.427h0.566
			c3.098,0,3.723-1.46,3.723-4.142c0-3.753-2.472-3.813-5.331-4.051c-2.681-0.209-5.749-1.521-5.749-5.897
			c0-4.259,1.936-6.464,6.761-6.464c4.558,0,6.404,2.115,6.613,5.898H48.023z"/>
	</g>
	<g>
		<defs>
			<rect id="SVGID_11_" y="0" width="112.926" height="96.975"/>
		</defs>
		<clipPath id="SVGID_12_">
			<use xlink:href="#SVGID_11_"  overflow="visible"/>
		</clipPath>
		<polygon clip-path="url(#SVGID_12_)" fill="#757578" points="60.767,66.584 60.767,86.809 57.937,86.809 57.937,66.584 
			53.171,66.584 53.171,63.963 65.532,63.963 65.532,66.584 		"/>
	</g>
	<g>
		<defs>
			<rect id="SVGID_13_" y="0" width="112.926" height="96.975"/>
		</defs>
		<clipPath id="SVGID_14_">
			<use xlink:href="#SVGID_13_"  overflow="visible"/>
		</clipPath>
		<polygon clip-path="url(#SVGID_14_)" fill="#757578" points="79.438,63.815 79.438,66.317 70.682,66.317 70.682,73.227 
			78.604,73.227 78.604,75.877 70.682,75.877 70.682,84.159 80.184,84.159 80.184,86.809 67.853,86.809 67.853,63.815 		"/>
	</g>
	<g>
		<defs>
			<rect id="SVGID_15_" y="0" width="112.926" height="96.975"/>
		</defs>
		<clipPath id="SVGID_16_">
			<use xlink:href="#SVGID_15_"  overflow="visible"/>
		</clipPath>
		<polygon clip-path="url(#SVGID_16_)" fill="#757578" points="83.366,86.809 83.366,63.845 86.225,63.845 86.225,84.188 
			95.19,84.188 95.19,86.809 		"/>
	</g>
	<g>
		<defs>
			<rect id="SVGID_17_" y="0" width="112.926" height="96.975"/>
		</defs>
		<clipPath id="SVGID_18_">
			<use xlink:href="#SVGID_17_"  overflow="visible"/>
		</clipPath>
		<polygon clip-path="url(#SVGID_18_)" fill="#757578" points="97.987,86.809 97.987,63.845 100.846,63.845 100.846,84.188 
			109.812,84.188 109.812,86.809 		"/>
	</g>
</g>
</svg>
