<?xml version="1.0" encoding="utf-8"?>
<!-- Generator: Adobe Illustrator 19.2.1, SVG Export Plug-In . SVG Version: 6.00 Build 0)  -->
<svg version="1.1" id="Capa_2" xmlns="http://www.w3.org/2000/svg" xmlns:xlink="http://www.w3.org/1999/xlink" x="0px" y="0px"
	 viewBox="0 0 80.9 104.6" style="enable-background:new 0 0 80.9 104.6;" xml:space="preserve">
<style type="text/css">
	.st0{fill:#18292E;}
	.st1{fill:#62848C;}
</style>
<g>
	<g>
		<g>
			<path class="st0" d="M41.3,97.4c-0.5,0-1.1-0.1-1.6-0.4L5.8,77.5c-1-0.6-1.6-1.6-1.6-2.7V35.3c0-1.1,0.6-2.2,1.6-2.7l33.9-19.5
				c1-0.6,2.2-0.6,3.2,0l33.9,19.5c1,0.6,1.6,1.6,1.6,2.7v39.4c0,1.1-0.6,2.2-1.6,2.7L42.9,97C42.4,97.3,41.8,97.4,41.3,97.4
				 M72.1,41l-7.7,4.6c-0.5,0.3-1.1,0.5-1.6,0.5c-1.1,0-2.1-0.5-2.7-1.5c-0.9-1.5-0.4-3.4,1.1-4.3l7.9-4.7l-24.5-14l-0.1,21.8
				c0,1.8-1.4,3.2-3.2,3.2c-1.8,0-3.2-1.4-3.2-3.2v-22h0l-24.4,14l19.4,10.9c1.5,0.8,2.1,2.8,1.2,4.3c-0.6,1-1.7,1.6-2.8,1.6
				c-0.5,0-1.1-0.1-1.5-0.4L10.5,40.9v28.4l19.9-11.8c1.5-0.9,3.4-0.4,4.3,1.1c0.9,1.5,0.4,3.4-1.1,4.3L13.7,74.8l24.4,14h0V65.4
				c0-1.7,1.4-3.2,3.2-3.2c1.8,0,3.2,1.4,3.2,3.2v23.4h0l24.4-14l0,0L49.4,63.8c-1.5-0.9-2.1-2.8-1.2-4.3c0.8-1.5,2.8-2.1,4.3-1.2
				l19.6,10.9L72.1,41L72.1,41L72.1,41z"/>
		</g>
	</g>
	<g>
		<g>
			<path class="st1" d="M50.5,53.1c-1.1,0-2.1-0.6-2.7-1.6c-0.9-1.5-0.4-3.4,1.1-4.3l4.9-2.9c1.5-0.9,3.4-0.4,4.3,1.1
				c0.9,1.5,0.4,3.4-1.1,4.3l-4.9,2.9C51.6,53,51.1,53.1,50.5,53.1"/>
		</g>
	</g>
</g>
</svg>
