<?xml version="1.0" encoding="utf-8"?>
<!-- Generator: Adobe Illustrator 19.2.1, SVG Export Plug-In . SVG Version: 6.00 Build 0)  -->
<svg version="1.1" id="Capa_2" xmlns="http://www.w3.org/2000/svg" xmlns:xlink="http://www.w3.org/1999/xlink" x="0px" y="0px"
	 viewBox="0 0 327.9 104.6" style="enable-background:new 0 0 327.9 104.6;" xml:space="preserve">
<style type="text/css">
	.st0{fill:#18292E;}
	.st1{fill:#62848C;}
	.st2{fill:#FFFFFF;}
</style>
<g>
	<g>
		<g>
			<path class="st0" d="M47.3,100.2c-0.6,0-1.2-0.2-1.8-0.5l-38.3-22c-1.1-0.6-1.8-1.8-1.8-3.1V30.1c0-1.3,0.7-2.5,1.8-3.1L45.5,5
				c1.1-0.6,2.5-0.6,3.6,0l38.3,22c1.1,0.6,1.8,1.8,1.8,3.1v44.5c0,1.3-0.7,2.5-1.8,3.1l-38.4,22C48.5,100.1,47.9,100.2,47.3,100.2
				 M82,36.5l-8.7,5.2c-0.6,0.3-1.2,0.5-1.8,0.5c-1.2,0-2.4-0.6-3.1-1.7c-1-1.7-0.5-3.9,1.2-4.9l8.9-5.3L51,14.4L50.9,39
				c0,2-1.6,3.6-3.6,3.6c-2,0-3.6-1.6-3.6-3.6V14.2h0L16.2,30.1l21.9,12.4c1.7,1,2.3,3.1,1.4,4.9c-0.7,1.2-1.9,1.8-3.1,1.8
				c-0.6,0-1.2-0.1-1.7-0.5L12.5,36.3v32L35,55.1c1.7-1,3.9-0.4,4.9,1.3c1,1.7,0.4,3.9-1.3,4.9L16.1,74.6l27.6,15.8h0V64.1
				c0-2,1.6-3.6,3.6-3.6c2,0,3.6,1.6,3.6,3.6v26.4h0l27.6-15.8l0,0L56.4,62.3c-1.7-1-2.3-3.1-1.4-4.9c1-1.7,3.1-2.3,4.9-1.4
				l22.1,12.3L82,36.5L82,36.5L82,36.5z"/>
		</g>
	</g>
	<g>
		<g>
			<path class="st1" d="M57.7,50.2c-1.2,0-2.4-0.6-3.1-1.8c-1-1.7-0.4-3.9,1.3-4.9l5.5-3.3c1.7-1,3.9-0.4,4.9,1.3
				c1,1.7,0.4,3.9-1.3,4.9l-5.5,3.3C59,50.1,58.3,50.2,57.7,50.2"/>
		</g>
	</g>
	<g>
		<g>
			<path class="st2" d="M123.1,43.4c-0.1-5.5-1.6-8-9.5-8c-7.9,0-9.5,2.9-9.5,10.6v16.6c0,7.5,0.6,10.4,9.5,10.4s9.5-1.8,9.5-9.3
				v-6.5h-9.2v-5.3H129v11.7c0,9.2-1.1,14.7-15.4,14.7c-13,0-15.4-5.6-15.4-16V46.1c0-10.4,2.3-16,15.4-16
				c12.4,0,14.9,3.9,15.2,13.3H123.1L123.1,43.4z"/>
		</g>
	</g>
	<g>
		<g>
			<polygon class="st2" points="160.5,30.6 160.5,35.8 142.4,35.8 142.4,50 158.8,50 158.8,55.5 142.4,55.5 142.4,72.6 162,72.6 
				162,78 136.6,78 136.6,30.6 			"/>
		</g>
	</g>
	<g>
		<g>
			<path class="st2" d="M188.5,42.4c-0.3-3.9-1.7-6.6-7.6-6.6c-6.6,0-7.9,3-7.9,7.7c0,6.6,5.7,6.5,11.7,7.1
				c5.5,0.6,11.1,3.3,11.1,13.1c0,10.2-3.9,14.6-13.6,14.6h-1.2c-9.7,0-14.1-4.7-14.6-12.8h6.3c0.3,4,2.1,7.1,8.2,7.1h1.2
				c6.4,0,7.7-3,7.7-8.5c0-7.7-5.1-7.9-11-8.4c-5.5-0.4-11.9-3.1-11.9-12.2c0-8.8,4-13.3,13.9-13.3c9.4,0,13.2,4.4,13.6,12.2
				C194.6,42.4,188.5,42.4,188.5,42.4z"/>
		</g>
	</g>
	<g>
		<g>
			<polygon class="st2" points="214.8,36.3 214.8,78 209,78 209,36.3 199.2,36.3 199.2,30.9 224.7,30.9 224.7,36.3 			"/>
		</g>
	</g>
	<g>
		<g>
			<polygon class="st2" points="253.3,30.6 253.3,35.8 235.3,35.8 235.3,50 251.6,50 251.6,55.5 235.3,55.5 235.3,72.6 254.9,72.6 
				254.9,78 229.4,78 229.4,30.6 			"/>
		</g>
	</g>
	<g>
		<g>
			<polygon class="st2" points="261.4,78 261.4,30.7 267.3,30.7 267.3,72.6 285.8,72.6 285.8,78 			"/>
		</g>
	</g>
	<g>
		<g>
			<polygon class="st2" points="291.6,78 291.6,30.7 297.5,30.7 297.5,72.6 316,72.6 316,78 			"/>
		</g>
	</g>
</g>
</svg>
